<svg width="68" height="68" viewBox="0 0 68 68" fill="none" xmlns="http://www.w3.org/2000/svg">
<g filter="url(#filter0_d_35_61)">
<rect x="4" width="60" height="60" rx="30" fill="white"/>
<rect x="6" y="2" width="56" height="56" rx="28" stroke="black" stroke-width="4"/>
</g>
<g clip-path="url(#clip0_35_61)">
<path d="M30.67 26.3C33.9837 26.3 36.67 23.6138 36.67 20.3C36.67 16.9863 33.9837 14.3 30.67 14.3C27.3563 14.3 24.67 16.9863 24.67 20.3C24.67 23.6138 27.3563 26.3 30.67 26.3Z" fill="black"/>
<path d="M32.44 43.82C32.1095 43.4932 31.8939 43.068 31.8254 42.6083C31.7569 42.1486 31.8392 41.679 32.06 41.27L32.59 40.27L31.5 39.94C31.0555 39.8009 30.6685 39.5206 30.3978 39.1416C30.1271 38.7626 29.9874 38.3056 30 37.84V35.79C29.9992 35.3265 30.1475 34.875 30.423 34.5022C30.6985 34.1294 31.0866 33.8552 31.53 33.72L32.62 33.39L32.1 32.39C31.8857 31.9866 31.8041 31.5258 31.8669 31.0733C31.9298 30.6208 32.1338 30.1997 32.45 29.87C31.6807 29.7692 30.9059 29.7157 30.13 29.71C27.8383 29.6561 25.563 30.1085 23.4662 31.035C21.3695 31.9615 19.5031 33.3392 18 35.07V42.82C18 43.0852 18.1054 43.3396 18.2929 43.5271C18.4804 43.7146 18.7348 43.82 19 43.82H32.44Z" fill="black"/>
<path d="M49.7 35.46L47.7 34.86C47.5614 34.3661 47.3668 33.8897 47.12 33.44L48.12 31.58C48.1586 31.511 48.1728 31.4309 48.1601 31.3528C48.1473 31.2747 48.1086 31.2032 48.05 31.15L46.6 29.69C46.5442 29.6357 46.4729 29.5998 46.396 29.5873C46.3191 29.5748 46.2402 29.5862 46.17 29.62L44.32 30.62C43.8646 30.3727 43.3855 30.1717 42.89 30.02L42.28 28.02C42.2532 27.9463 42.2041 27.8827 42.1397 27.8379C42.0752 27.7931 41.9985 27.7694 41.92 27.77H39.84C39.762 27.7722 39.6866 27.7983 39.624 27.8448C39.5614 27.8914 39.5146 27.956 39.49 28.03L38.89 30.03C38.3848 30.177 37.8983 30.3817 37.44 30.64L35.63 29.64C35.5596 29.6026 35.4793 29.5883 35.4003 29.5991C35.3214 29.6098 35.2478 29.6452 35.19 29.7L33.72 31.14C33.6621 31.1958 33.624 31.2689 33.6113 31.3483C33.5987 31.4277 33.6123 31.509 33.65 31.58L34.65 33.4C34.3821 33.8517 34.1642 34.3312 34 34.83L32 35.44C31.9243 35.4619 31.8579 35.508 31.811 35.5712C31.764 35.6344 31.7391 35.7113 31.74 35.79V37.84C31.7391 37.9188 31.764 37.9957 31.811 38.0589C31.8579 38.1221 31.9243 38.1682 32 38.19L34 38.8C34.1499 39.2898 34.351 39.7624 34.6 40.21L33.6 42.11C33.5623 42.181 33.5487 42.2624 33.5613 42.3417C33.574 42.4211 33.6121 42.4942 33.67 42.55L35.16 44C35.2178 44.0549 35.2914 44.0902 35.3703 44.101C35.4493 44.1118 35.5296 44.0974 35.6 44.06L37.47 43.06C37.915 43.2994 38.3844 43.4905 38.87 43.63L39.47 45.68C39.4952 45.7556 39.5435 45.8214 39.6081 45.8681C39.6727 45.9147 39.7503 45.9399 39.83 45.94H41.88C41.958 45.9379 42.0334 45.9117 42.096 45.8652C42.1586 45.8187 42.2054 45.7541 42.23 45.68L42.83 43.63C43.3099 43.4922 43.7727 43.301 44.21 43.06L46.1 44.06C46.1704 44.0974 46.2507 44.1118 46.3297 44.101C46.4086 44.0902 46.4822 44.0549 46.54 44L48 42.55C48.0549 42.4922 48.0902 42.4187 48.101 42.3397C48.1117 42.2607 48.0974 42.1804 48.06 42.11L47.06 40.23C47.2992 39.7919 47.4903 39.3292 47.63 38.85L49.63 38.24C49.7051 38.2159 49.7712 38.1695 49.8194 38.107C49.8676 38.0445 49.8957 37.9688 49.9 37.89V35.82C49.9024 35.7475 49.8851 35.6757 49.8499 35.6123C49.8147 35.5489 49.7628 35.4963 49.7 35.46ZM40.87 40.18C40.209 40.182 39.5623 39.9878 39.0117 39.622C38.4611 39.2562 38.0315 38.7353 37.7771 38.1251C37.5228 37.515 37.4552 36.8431 37.583 36.1946C37.7107 35.546 38.028 34.95 38.4947 34.4819C38.9614 34.0137 39.5565 33.6946 40.2047 33.565C40.8529 33.4353 41.525 33.5008 42.1358 33.7533C42.7467 34.0058 43.269 34.4339 43.6364 34.9834C44.0039 35.5329 44.2 36.179 44.2 36.84C44.2 37.7241 43.8495 38.5722 43.2253 39.1982C42.6011 39.8243 41.7541 40.1774 40.87 40.18Z" fill="black"/>
</g>
<defs>
<filter id="filter0_d_35_61" x="0" y="0" width="68" height="68" filterUnits="userSpaceOnUse" color-interpolation-filters="sRGB">
<feFlood flood-opacity="0" result="BackgroundImageFix"/>
<feColorMatrix in="SourceAlpha" type="matrix" values="0 0 0 0 0 0 0 0 0 0 0 0 0 0 0 0 0 0 127 0" result="hardAlpha"/>
<feOffset dy="4"/>
<feGaussianBlur stdDeviation="2"/>
<feComposite in2="hardAlpha" operator="out"/>
<feColorMatrix type="matrix" values="0 0 0 0 0 0 0 0 0 0 0 0 0 0 0 0 0 0 0.25 0"/>
<feBlend mode="normal" in2="BackgroundImageFix" result="effect1_dropShadow_35_61"/>
<feBlend mode="normal" in="SourceGraphic" in2="effect1_dropShadow_35_61" result="shape"/>
</filter>
<clipPath id="clip0_35_61">
<rect width="36" height="36" fill="white" transform="translate(16 12)"/>
</clipPath>
</defs>
</svg>
