<svg width="91" height="91" viewBox="0 0 91 91" fill="none" xmlns="http://www.w3.org/2000/svg">
<path d="M45.5 9.24219C38.3289 9.24219 31.3188 11.3687 25.3563 15.3527C19.3937 19.3368 14.7464 24.9995 12.0022 31.6247C9.2579 38.25 8.53987 45.5402 9.93889 52.5735C11.3379 59.6069 14.7911 66.0674 19.8619 71.1381C24.9326 76.2089 31.3931 79.6621 38.4265 81.0611C45.4598 82.4601 52.75 81.7421 59.3753 78.9979C66.0005 76.2536 71.6632 71.6063 75.6473 65.6438C79.6313 59.6812 81.7578 52.6711 81.7578 45.5C81.7465 35.8873 77.9229 26.6715 71.1257 19.8743C64.3285 13.0771 55.1127 9.25348 45.5 9.24219ZM45.5 77.4922C39.1726 77.4922 32.9872 75.6159 27.7261 72.1005C22.465 68.5852 18.3645 63.5887 15.9431 57.7429C13.5217 51.8971 12.8881 45.4645 14.1225 39.2586C15.357 33.0528 18.4039 27.3523 22.8781 22.8781C27.3523 18.4039 33.0528 15.357 39.2587 14.1225C45.4645 12.8881 51.8971 13.5217 57.7429 15.9431C63.5887 18.3645 68.5852 22.465 72.1005 27.7261C75.6159 32.9872 77.4922 39.1725 77.4922 45.5C77.4828 53.982 74.1092 62.1138 68.1115 68.1115C62.1139 74.1092 53.982 77.4828 45.5 77.4922Z" fill="black"/>
<path d="M36.2662 41.4854C23.8206 41.4854 23.8206 62.8971 23.8206 62.8971H48.7118C48.7118 62.8971 48.7118 41.4854 36.2662 41.4854Z" fill="black" stroke="black" stroke-width="3" stroke-linecap="round" stroke-linejoin="round"/>
<path d="M36.4 38.0058C40.8345 38.0058 44.4294 34.6506 44.4294 30.5117C44.4294 26.3728 40.8345 23.0176 36.4 23.0176C31.9655 23.0176 28.3706 26.3728 28.3706 30.5117C28.3706 34.6506 31.9655 38.0058 36.4 38.0058Z" fill="black" stroke="black" stroke-width="3" stroke-linecap="round" stroke-linejoin="round"/>
<path d="M69.8559 49.2264H58.2443L54.7338 38.0059L51.2233 49.2264H39.6118L49.063 55.9588L45.4175 67.1794L54.7338 60.1665L64.0501 67.1794L60.4046 55.9588L69.8559 49.2264Z" fill="black" stroke="#F4F4F4" stroke-width="2" stroke-linejoin="round"/>
</svg>
