<svg width="391" height="86" viewBox="0 0 391 86" fill="none" xmlns="http://www.w3.org/2000/svg">
<path d="M54.552 15.04C54.552 18.6667 53.272 21.8027 50.712 24.448C48.152 27.0507 44.4187 28.928 39.512 30.08C42.1573 30.8053 44.1627 32 45.528 33.664C46.8933 35.2853 47.576 37.1627 47.576 39.296C47.576 42.6667 46.5093 45.5893 44.376 48.064C42.2853 50.5387 39.2133 52.4587 35.16 53.824C31.1067 55.1467 26.2213 55.808 20.504 55.808C18.3707 55.808 16.664 55.744 15.384 55.616C15.3413 56.8107 14.8293 57.7067 13.848 58.304C12.8667 58.9013 11.608 59.2 10.072 59.2C8.536 59.2 7.46933 58.8587 6.872 58.176C6.31733 57.4933 6.08267 56.4907 6.168 55.168C6.552 49.1947 7.29867 42.944 8.408 36.416C9.51733 29.8453 10.9253 23.5093 12.632 17.408C12.9307 16.3413 13.528 15.5947 14.424 15.168C15.32 14.7413 16.4933 14.528 17.944 14.528C20.5467 14.528 21.848 15.2533 21.848 16.704C21.848 17.3013 21.72 17.984 21.464 18.752C20.3547 22.08 19.2453 26.6027 18.136 32.32C17.0267 37.9947 16.2373 43.4133 15.768 48.576C17.816 48.7467 19.48 48.832 20.76 48.832C26.7333 48.832 31.1067 47.9787 33.88 46.272C36.696 44.5227 38.104 42.304 38.104 39.616C38.104 37.7387 37.2933 36.16 35.672 34.88C34.0933 33.6 31.4267 32.896 27.672 32.768C26.8187 32.7253 26.2213 32.512 25.88 32.128C25.5387 31.744 25.368 31.1253 25.368 30.272C25.368 29.0347 25.624 28.032 26.136 27.264C26.648 26.496 27.5867 26.0907 28.952 26.048C31.9813 25.9627 34.712 25.5147 37.144 24.704C39.6187 23.8933 41.56 22.7627 42.968 21.312C44.376 19.8187 45.08 18.0907 45.08 16.128C45.08 13.6533 43.864 11.712 41.432 10.304C39 8.85333 35.2667 8.128 30.232 8.128C25.6667 8.128 21.2507 8.72533 16.984 9.92C12.7173 11.072 9.09067 12.544 6.104 14.336C4.73867 15.1467 3.58667 15.552 2.648 15.552C1.88 15.552 1.28267 15.296 0.856 14.784C0.472 14.2293 0.28 13.5467 0.28 12.736C0.28 11.6693 0.493333 10.752 0.92 9.984C1.38933 9.216 2.47733 8.34133 4.184 7.36C7.768 5.312 11.9707 3.712 16.792 2.56C21.6133 1.408 26.5413 0.831997 31.576 0.831997C39.2987 0.831997 45.0587 2.13333 48.856 4.736C52.6533 7.33867 54.552 10.7733 54.552 15.04ZM81.3035 41.728C81.8582 41.728 82.2848 41.984 82.5835 42.496C82.9248 43.008 83.0955 43.712 83.0955 44.608C83.0955 46.3147 82.6902 47.6373 81.8795 48.576C80.3008 50.496 78.0608 52.2667 75.1595 53.888C72.3008 55.5093 69.2288 56.32 65.9435 56.32C61.4635 56.32 57.9862 55.104 55.5115 52.672C53.0368 50.24 51.7995 46.912 51.7995 42.688C51.7995 39.744 52.4182 37.0133 53.6555 34.496C54.8928 31.936 56.5995 29.9093 58.7755 28.416C60.9942 26.9227 63.4902 26.176 66.2635 26.176C68.7382 26.176 70.7222 26.9227 72.2155 28.416C73.7088 29.8667 74.4555 31.8507 74.4555 34.368C74.4555 37.312 73.3888 39.8507 71.2555 41.984C69.1648 44.0747 65.6022 45.7387 60.5675 46.976C61.6342 48.9387 63.6608 49.92 66.6475 49.92C68.5675 49.92 70.7435 49.2587 73.1755 47.936C75.6502 46.5707 77.7835 44.8 79.5755 42.624C80.0875 42.0267 80.6635 41.728 81.3035 41.728ZM65.1755 32.448C63.5968 32.448 62.2528 33.3653 61.1435 35.2C60.0768 37.0347 59.5435 39.2533 59.5435 41.856V41.984C62.0608 41.3867 64.0448 40.4907 65.4955 39.296C66.9462 38.1013 67.6715 36.7147 67.6715 35.136C67.6715 34.3253 67.4368 33.6853 66.9675 33.216C66.5408 32.704 65.9435 32.448 65.1755 32.448ZM85.444 56.32C82.7987 56.32 80.6867 55.36 79.108 53.44C77.5293 51.52 76.74 49.0027 76.74 45.888C76.74 42.4747 77.5293 39.2533 79.108 36.224C80.6867 33.152 82.7773 30.6987 85.38 28.864C88.0253 26.9867 90.82 26.048 93.764 26.048C94.7027 26.048 95.3213 26.24 95.62 26.624C95.9613 26.9653 96.2387 27.6053 96.452 28.544C97.348 28.3733 98.2867 28.288 99.268 28.288C101.359 28.288 102.404 29.0347 102.404 30.528C102.404 31.424 102.084 33.5573 101.444 36.928C100.463 41.8347 99.972 45.248 99.972 47.168C99.972 47.808 100.121 48.32 100.42 48.704C100.761 49.088 101.188 49.28 101.7 49.28C102.511 49.28 103.492 48.768 104.644 47.744C105.796 46.6773 107.353 44.9707 109.316 42.624C109.828 42.0267 110.404 41.728 111.044 41.728C111.599 41.728 112.025 41.984 112.324 42.496C112.665 43.008 112.836 43.712 112.836 44.608C112.836 46.3147 112.431 47.6373 111.62 48.576C109.871 50.752 108.015 52.5867 106.052 54.08C104.089 55.5733 102.191 56.32 100.356 56.32C98.948 56.32 97.6467 55.8507 96.452 54.912C95.3 53.9307 94.4253 52.608 93.828 50.944C91.6093 54.528 88.8147 56.32 85.444 56.32ZM87.748 49.856C88.6867 49.856 89.5827 49.3013 90.436 48.192C91.2893 47.0827 91.908 45.6107 92.292 43.776L94.66 32C92.868 32.0427 91.204 32.7253 89.668 34.048C88.1747 35.328 86.98 37.0347 86.084 39.168C85.188 41.3013 84.74 43.5627 84.74 45.952C84.74 47.2747 84.996 48.256 85.508 48.896C86.0627 49.536 86.8093 49.856 87.748 49.856ZM114.163 56.32C112.243 56.32 110.664 55.4453 109.427 53.696C108.232 51.904 107.635 49.6853 107.635 47.04C107.635 43.84 107.848 40.9173 108.275 38.272C108.701 35.584 109.405 32.7467 110.387 29.76C110.813 28.48 111.411 27.5627 112.179 27.008C112.947 26.4533 114.163 26.176 115.827 26.176C116.765 26.176 117.405 26.3253 117.747 26.624C118.131 26.9227 118.323 27.3707 118.323 27.968C118.323 28.3093 118.088 29.4613 117.619 31.424C117.192 33.0027 116.851 34.432 116.595 35.712C115.741 40.192 115.315 43.1787 115.315 44.672C115.315 45.568 115.421 46.208 115.635 46.592C115.848 46.9333 116.189 47.104 116.659 47.104C117.299 47.104 118.088 46.464 119.027 45.184C120.008 43.904 121.032 41.9627 122.099 39.36C123.208 36.7573 124.275 33.5573 125.299 29.76C125.64 28.48 126.152 27.5627 126.835 27.008C127.56 26.4533 128.627 26.176 130.035 26.176C131.016 26.176 131.699 26.304 132.083 26.56C132.467 26.7733 132.659 27.2 132.659 27.84C132.659 28.9067 132.125 31.8293 131.059 36.608C129.864 42.0693 129.267 45.44 129.267 46.72C129.267 47.5307 129.437 48.1707 129.779 48.64C130.12 49.0667 130.568 49.28 131.123 49.28C131.976 49.28 132.979 48.768 134.131 47.744C135.325 46.6773 136.904 44.9707 138.867 42.624C139.379 42.0267 139.955 41.728 140.595 41.728C141.149 41.728 141.576 41.984 141.875 42.496C142.216 43.008 142.387 43.712 142.387 44.608C142.387 46.3147 141.981 47.6373 141.171 48.576C139.336 50.8373 137.352 52.6933 135.219 54.144C133.128 55.5947 130.739 56.32 128.051 56.32C126.003 56.32 124.488 55.5307 123.507 53.952C122.568 52.3733 122.099 50.1547 122.099 47.296C121.373 50.1973 120.285 52.4373 118.835 54.016C117.384 55.552 115.827 56.32 114.163 56.32ZM165.741 41.728C166.296 41.728 166.722 41.984 167.021 42.496C167.362 43.008 167.533 43.712 167.533 44.608C167.533 46.3147 167.128 47.6373 166.317 48.576C164.482 50.8373 162.477 52.6933 160.301 54.144C158.125 55.5947 155.629 56.32 152.813 56.32C144.109 56.32 139.757 50.1973 139.757 37.952C139.757 36.0747 139.821 34.176 139.949 32.256H137.453C136.173 32.256 135.298 32.0213 134.829 31.552C134.402 31.0827 134.189 30.336 134.189 29.312C134.189 26.9227 135.149 25.728 137.069 25.728H140.717C141.442 21.0347 142.552 16.7467 144.045 12.864C145.538 8.98133 147.33 5.888 149.421 3.584C151.554 1.28 153.837 0.127998 156.269 0.127998C158.061 0.127998 159.469 0.917332 160.493 2.496C161.517 4.07467 162.029 6.05866 162.029 8.448C162.029 15.0613 159.256 20.8213 153.709 25.728H160.877C161.56 25.728 162.05 25.8773 162.349 26.176C162.648 26.4747 162.797 27.0293 162.797 27.84C162.797 30.784 160.386 32.256 155.565 32.256H147.757C147.672 34.3893 147.629 36.0533 147.629 37.248C147.629 41.6853 148.141 44.8 149.165 46.592C150.232 48.384 151.896 49.28 154.157 49.28C155.992 49.28 157.613 48.7253 159.021 47.616C160.429 46.5067 162.093 44.8427 164.013 42.624C164.525 42.0267 165.101 41.728 165.741 41.728ZM154.541 6.272C153.901 6.272 153.176 7.08267 152.365 8.704C151.597 10.2827 150.85 12.5013 150.125 15.36C149.442 18.176 148.866 21.312 148.397 24.768C150.914 22.592 152.792 20.16 154.029 17.472C155.309 14.7413 155.949 12.2667 155.949 10.048C155.949 7.53067 155.48 6.272 154.541 6.272ZM195.09 41.856C195.645 41.856 196.071 42.1333 196.37 42.688C196.711 43.2 196.882 43.8613 196.882 44.672C196.882 45.6533 196.733 46.4213 196.434 46.976C196.135 47.5307 195.666 48.0213 195.026 48.448L182.738 56.704C181.117 65.536 178.983 72.4693 176.338 77.504C173.735 82.5813 170.407 85.12 166.354 85.12C164.178 85.12 162.407 84.4373 161.042 83.072C159.677 81.7493 158.994 80 158.994 77.824C158.994 75.8187 159.442 73.7707 160.338 71.68C161.277 69.5893 162.983 67.1787 165.458 64.448C167.975 61.76 171.517 58.6667 176.082 55.168L176.274 53.696C176.573 52.1173 176.914 49.856 177.298 46.912C176.445 49.984 175.25 52.3307 173.714 53.952C172.178 55.5307 170.557 56.32 168.85 56.32C166.93 56.32 165.351 55.4453 164.114 53.696C162.919 51.904 162.322 49.6853 162.322 47.04C162.322 43.84 162.535 40.9173 162.962 38.272C163.389 35.584 164.093 32.7467 165.074 29.76C165.501 28.48 166.098 27.5627 166.866 27.008C167.634 26.4533 168.85 26.176 170.514 26.176C171.453 26.176 172.093 26.3253 172.434 26.624C172.818 26.9227 173.01 27.3707 173.01 27.968C173.01 28.3093 172.775 29.4613 172.306 31.424C171.879 33.0027 171.538 34.432 171.282 35.712C170.941 37.4613 170.642 39.1467 170.386 40.768C170.13 42.3467 170.002 43.648 170.002 44.672C170.002 46.2933 170.45 47.104 171.346 47.104C171.986 47.104 172.775 46.464 173.714 45.184C174.695 43.904 175.719 41.9627 176.786 39.36C177.895 36.7573 178.962 33.5573 179.986 29.76C180.327 28.48 180.839 27.5627 181.522 27.008C182.247 26.4533 183.314 26.176 184.722 26.176C185.703 26.176 186.386 26.304 186.77 26.56C187.154 26.816 187.346 27.2427 187.346 27.84C187.346 28.9067 186.791 32.576 185.682 38.848L184.018 49.152C187.303 46.6773 190.503 44.416 193.618 42.368C194.173 42.0267 194.663 41.856 195.09 41.856ZM167.058 78.912C168.125 78.912 169.319 77.6747 170.642 75.2C171.965 72.7253 173.287 68.608 174.61 62.848C171.325 65.6213 168.935 68.1387 167.442 70.4C165.991 72.704 165.266 74.7093 165.266 76.416C165.266 77.1413 165.394 77.7387 165.65 78.208C165.949 78.6773 166.418 78.912 167.058 78.912ZM220.866 41.728C221.421 41.728 221.847 41.984 222.146 42.496C222.487 43.008 222.658 43.712 222.658 44.608C222.658 46.3147 222.253 47.6373 221.442 48.576C219.607 50.8373 217.602 52.6933 215.426 54.144C213.25 55.5947 210.754 56.32 207.938 56.32C199.234 56.32 194.882 50.1973 194.882 37.952C194.882 36.0747 194.946 34.176 195.074 32.256H192.578C191.298 32.256 190.423 32.0213 189.954 31.552C189.527 31.0827 189.314 30.336 189.314 29.312C189.314 26.9227 190.274 25.728 192.194 25.728H195.842C196.567 21.0347 197.677 16.7467 199.17 12.864C200.663 8.98133 202.455 5.888 204.546 3.584C206.679 1.28 208.962 0.127998 211.394 0.127998C213.186 0.127998 214.594 0.917332 215.618 2.496C216.642 4.07467 217.154 6.05866 217.154 8.448C217.154 15.0613 214.381 20.8213 208.834 25.728H216.002C216.685 25.728 217.175 25.8773 217.474 26.176C217.773 26.4747 217.922 27.0293 217.922 27.84C217.922 30.784 215.511 32.256 210.69 32.256H202.882C202.797 34.3893 202.754 36.0533 202.754 37.248C202.754 41.6853 203.266 44.8 204.29 46.592C205.357 48.384 207.021 49.28 209.282 49.28C211.117 49.28 212.738 48.7253 214.146 47.616C215.554 46.5067 217.218 44.8427 219.138 42.624C219.65 42.0267 220.226 41.728 220.866 41.728ZM209.666 6.272C209.026 6.272 208.301 7.08267 207.49 8.704C206.722 10.2827 205.975 12.5013 205.25 15.36C204.567 18.176 203.991 21.312 203.522 24.768C206.039 22.592 207.917 20.16 209.154 17.472C210.434 14.7413 211.074 12.2667 211.074 10.048C211.074 7.53067 210.605 6.272 209.666 6.272ZM250.087 36.352C250.642 36.352 251.068 36.6293 251.367 37.184C251.666 37.7387 251.815 38.4427 251.815 39.296C251.815 41.344 251.196 42.56 249.959 42.944C247.399 43.84 244.583 44.352 241.511 44.48C240.7 48.064 239.1 50.944 236.711 53.12C234.322 55.2533 231.612 56.32 228.583 56.32C226.023 56.32 223.826 55.7013 221.991 54.464C220.199 53.2267 218.834 51.584 217.895 49.536C216.956 47.488 216.487 45.2693 216.487 42.88C216.487 39.6373 217.106 36.7573 218.343 34.24C219.58 31.68 221.287 29.696 223.463 28.288C225.639 26.8373 228.05 26.112 230.695 26.112C233.938 26.112 236.54 27.2427 238.503 29.504C240.508 31.7227 241.682 34.4747 242.023 37.76C244.028 37.632 246.418 37.2053 249.191 36.48C249.532 36.3947 249.831 36.352 250.087 36.352ZM229.095 49.536C230.46 49.536 231.634 48.9813 232.615 47.872C233.639 46.7627 234.322 45.1627 234.663 43.072C233.34 42.176 232.316 41.0027 231.591 39.552C230.908 38.1013 230.567 36.5653 230.567 34.944C230.567 34.2613 230.631 33.5787 230.759 32.896H230.439C228.732 32.896 227.303 33.728 226.151 35.392C225.042 37.0133 224.487 39.3173 224.487 42.304C224.487 44.6507 224.935 46.4427 225.831 47.68C226.77 48.9173 227.858 49.536 229.095 49.536ZM252.85 56.32C250.93 56.32 249.351 55.4453 248.114 53.696C246.919 51.904 246.322 49.6853 246.322 47.04C246.322 43.84 246.535 40.9173 246.962 38.272C247.389 35.584 248.093 32.7467 249.074 29.76C249.501 28.48 250.098 27.5627 250.866 27.008C251.634 26.4533 252.85 26.176 254.514 26.176C255.453 26.176 256.093 26.3253 256.434 26.624C256.818 26.9227 257.01 27.3707 257.01 27.968C257.01 28.3093 256.775 29.4613 256.306 31.424C255.879 33.0027 255.538 34.432 255.282 35.712C254.429 40.192 254.002 43.1787 254.002 44.672C254.002 45.568 254.109 46.208 254.322 46.592C254.535 46.9333 254.877 47.104 255.346 47.104C255.986 47.104 256.775 46.464 257.714 45.184C258.695 43.904 259.719 41.9627 260.786 39.36C261.895 36.7573 262.962 33.5573 263.986 29.76C264.327 28.48 264.839 27.5627 265.522 27.008C266.247 26.4533 267.314 26.176 268.722 26.176C269.703 26.176 270.386 26.304 270.77 26.56C271.154 26.7733 271.346 27.2 271.346 27.84C271.346 28.9067 270.813 31.8293 269.746 36.608C268.551 42.0693 267.954 45.44 267.954 46.72C267.954 47.5307 268.125 48.1707 268.466 48.64C268.807 49.0667 269.255 49.28 269.81 49.28C270.663 49.28 271.666 48.768 272.818 47.744C274.013 46.6773 275.591 44.9707 277.554 42.624C278.066 42.0267 278.642 41.728 279.282 41.728C279.837 41.728 280.263 41.984 280.562 42.496C280.903 43.008 281.074 43.712 281.074 44.608C281.074 46.3147 280.669 47.6373 279.858 48.576C278.023 50.8373 276.039 52.6933 273.906 54.144C271.815 55.5947 269.426 56.32 266.738 56.32C264.69 56.32 263.175 55.5307 262.194 53.952C261.255 52.3733 260.786 50.1547 260.786 47.296C260.061 50.1973 258.973 52.4373 257.522 54.016C256.071 55.552 254.514 56.32 252.85 56.32ZM280.429 56.32C278.807 56.32 277.655 55.4667 276.973 53.76C276.333 52.0533 276.013 49.3227 276.013 45.568C276.013 40.0213 276.802 34.752 278.381 29.76C278.765 28.5227 279.383 27.6267 280.237 27.072C281.133 26.4747 282.37 26.176 283.949 26.176C284.802 26.176 285.399 26.2827 285.741 26.496C286.082 26.7093 286.253 27.1147 286.253 27.712C286.253 28.3947 285.933 29.9307 285.293 32.32C284.866 34.0267 284.525 35.52 284.269 36.8C284.013 38.08 283.799 39.6587 283.629 41.536C285.037 37.8667 286.615 34.88 288.365 32.576C290.114 30.272 291.821 28.6293 293.485 27.648C295.191 26.6667 296.749 26.176 298.157 26.176C300.93 26.176 302.317 27.5627 302.317 30.336C302.317 30.8907 302.125 32.2347 301.741 34.368C301.399 36.0747 301.229 37.1413 301.229 37.568C301.229 39.0613 301.762 39.808 302.829 39.808C304.023 39.808 305.559 38.8693 307.437 36.992C307.991 36.4373 308.567 36.16 309.165 36.16C309.719 36.16 310.146 36.416 310.444 36.928C310.786 37.3973 310.957 38.0373 310.957 38.848C310.957 40.4267 310.53 41.664 309.677 42.56C308.482 43.7973 307.074 44.864 305.453 45.76C303.874 46.6133 302.189 47.04 300.397 47.04C298.135 47.04 296.407 46.464 295.213 45.312C294.061 44.16 293.485 42.6027 293.485 40.64C293.485 40 293.549 39.36 293.677 38.72C293.762 37.8667 293.805 37.2907 293.805 36.992C293.805 36.3093 293.57 35.968 293.101 35.968C292.461 35.968 291.607 36.6933 290.541 38.144C289.517 39.552 288.493 41.4293 287.469 43.776C286.445 46.1227 285.613 48.5973 284.973 51.2C284.503 53.2053 283.949 54.5707 283.309 55.296C282.711 55.9787 281.751 56.32 280.429 56.32ZM313.394 21.952C311.602 21.952 310.258 21.5467 309.362 20.736C308.466 19.8827 308.018 18.7093 308.018 17.216C308.018 15.7227 308.594 14.4853 309.746 13.504C310.94 12.48 312.412 11.968 314.162 11.968C315.74 11.968 317.02 12.352 318.002 13.12C318.983 13.888 319.474 14.976 319.474 16.384C319.474 18.0907 318.919 19.456 317.81 20.48C316.7 21.4613 315.228 21.952 313.394 21.952ZM312.882 56.32C310.108 56.32 308.082 55.3387 306.802 53.376C305.564 51.4133 304.946 48.8107 304.946 45.568C304.946 43.648 305.18 41.1947 305.65 38.208C306.162 35.1787 306.802 32.3627 307.57 29.76C307.954 28.3947 308.466 27.456 309.106 26.944C309.746 26.432 310.77 26.176 312.178 26.176C314.354 26.176 315.442 26.9013 315.442 28.352C315.442 29.4187 315.036 31.8933 314.226 35.776C313.202 40.4693 312.69 43.648 312.69 45.312C312.69 46.592 312.86 47.5733 313.202 48.256C313.543 48.9387 314.119 49.28 314.93 49.28C315.698 49.28 316.658 48.7467 317.81 47.68C318.962 46.6133 320.498 44.928 322.418 42.624C322.93 42.0267 323.506 41.728 324.146 41.728C324.7 41.728 325.127 41.984 325.426 42.496C325.767 43.008 325.938 43.712 325.938 44.608C325.938 46.3147 325.532 47.6373 324.722 48.576C320.498 53.7387 316.551 56.32 312.882 56.32ZM332.664 57.728C330.445 57.728 328.738 57.216 327.544 56.192C326.392 55.168 325.816 54.016 325.816 52.736C325.816 51.6267 326.221 50.6667 327.032 49.856C327.842 49.0453 329.037 48.64 330.616 48.64C331.17 48.64 331.81 48.704 332.536 48.832C333.304 48.9173 333.88 48.9813 334.264 49.024C334.221 47.9147 333.965 46.8693 333.496 45.888C333.069 44.9067 332.514 43.968 331.832 43.072C331.149 42.1333 330.509 41.3227 329.912 40.64C328.589 43.1573 327.266 45.248 325.944 46.912C324.664 48.576 323.256 50.1547 321.72 51.648C320.952 52.416 320.141 52.8 319.288 52.8C318.605 52.8 318.05 52.5653 317.623 52.096C317.197 51.584 316.983 50.9653 316.983 50.24C316.983 49.3867 317.282 48.5973 317.88 47.872L318.712 46.848C321.058 43.9467 322.829 41.5573 324.024 39.68C324.749 38.4427 325.602 36.8 326.584 34.752C327.565 32.6613 328.525 30.5067 329.464 28.288C330.274 26.4107 331.96 25.472 334.52 25.472C335.714 25.472 336.546 25.5787 337.016 25.792C337.485 26.0053 337.72 26.3467 337.72 26.816C337.72 27.072 337.634 27.4773 337.464 28.032C337.293 28.5867 337.058 29.1413 336.76 29.696C335.992 31.232 335.608 32.5333 335.608 33.6C335.608 34.24 335.821 34.944 336.248 35.712C336.717 36.48 337.421 37.44 338.36 38.592C339.725 40.384 340.749 41.92 341.432 43.2C342.157 44.4373 342.52 45.8027 342.52 47.296C342.52 47.7227 342.477 48.32 342.392 49.088C344.482 48.2773 346.936 46.1227 349.752 42.624C350.264 42.0267 350.84 41.728 351.479 41.728C352.034 41.728 352.461 41.984 352.76 42.496C353.101 43.008 353.272 43.712 353.272 44.608C353.272 46.2293 352.866 47.552 352.056 48.576C349.922 51.2213 347.874 53.0347 345.912 54.016C343.992 54.9547 341.602 55.4667 338.744 55.552C337.037 57.0027 335.01 57.728 332.664 57.728ZM352.616 56.32C350.995 56.32 349.843 55.4667 349.16 53.76C348.52 52.0533 348.2 49.3227 348.2 45.568C348.2 40.0213 348.989 34.752 350.568 29.76C350.952 28.5227 351.571 27.6267 352.424 27.072C353.32 26.4747 354.557 26.176 356.136 26.176C356.989 26.176 357.587 26.2827 357.928 26.496C358.269 26.7093 358.44 27.1147 358.44 27.712C358.44 28.3947 358.12 29.9307 357.48 32.32C357.053 34.0267 356.712 35.52 356.456 36.8C356.2 38.0373 355.987 39.5947 355.816 41.472C356.968 38.144 358.333 35.328 359.912 33.024C361.533 30.72 363.176 29.0133 364.84 27.904C366.547 26.752 368.147 26.176 369.64 26.176C371.133 26.176 372.179 26.5173 372.776 27.2C373.416 27.8827 373.736 28.928 373.736 30.336C373.736 31.7013 373.331 34.176 372.52 37.76C372.179 39.296 371.944 40.448 371.816 41.216C373.224 37.632 374.781 34.7093 376.488 32.448C378.237 30.1867 379.944 28.5867 381.608 27.648C383.272 26.6667 384.808 26.176 386.216 26.176C387.581 26.176 388.605 26.5387 389.288 27.264C390.013 27.9467 390.376 28.9707 390.376 30.336C390.376 31.4453 390.141 33.536 389.672 36.608C389.245 39.2107 388.904 41.6853 388.648 44.032C388.392 46.336 388.264 48.9173 388.264 51.776C388.264 53.3973 387.923 54.5707 387.24 55.296C386.6 55.9787 385.533 56.32 384.04 56.32C382.632 56.32 381.608 55.9573 380.968 55.232C380.328 54.5067 380.008 53.4187 380.008 51.968C380.008 50.2613 380.307 47.4453 380.904 43.52C381.416 40.1067 381.672 37.9307 381.672 36.992C381.672 36.3093 381.437 35.968 380.968 35.968C380.413 35.968 379.624 36.6933 378.6 38.144C377.576 39.552 376.552 41.4293 375.528 43.776C374.504 46.1227 373.672 48.5973 373.032 51.2C372.563 53.248 372.008 54.6133 371.368 55.296C370.771 55.9787 369.789 56.32 368.424 56.32C367.016 56.32 365.949 55.6587 365.224 54.336C364.541 52.9707 364.2 51.328 364.2 49.408C364.2 47.7867 364.413 45.44 364.84 42.368C365.181 39.6373 365.352 37.8453 365.352 36.992C365.352 36.3093 365.117 35.968 364.648 35.968C364.008 35.968 363.197 36.736 362.216 38.272C361.235 39.808 360.275 41.7707 359.336 44.16C358.44 46.5493 357.715 48.896 357.16 51.2C356.691 53.2053 356.136 54.5707 355.496 55.296C354.899 55.9787 353.939 56.32 352.616 56.32Z" fill="black"/>
</svg>
