<svg width="1440" height="101" viewBox="0 0 1440 101" fill="none" xmlns="http://www.w3.org/2000/svg">
<rect width="1440" height="100" fill="white"/>
<path d="M572.552 30.04C572.552 33.6667 571.272 36.8027 568.712 39.448C566.152 42.0507 562.419 43.928 557.512 45.08C560.157 45.8053 562.163 47 563.528 48.664C564.893 50.2853 565.576 52.1627 565.576 54.296C565.576 57.6667 564.509 60.5893 562.376 63.064C560.285 65.5387 557.213 67.4587 553.16 68.824C549.107 70.1467 544.221 70.808 538.504 70.808C536.371 70.808 534.664 70.744 533.384 70.616C533.341 71.8107 532.829 72.7067 531.848 73.304C530.867 73.9013 529.608 74.2 528.072 74.2C526.536 74.2 525.469 73.8587 524.872 73.176C524.317 72.4933 524.083 71.4907 524.168 70.168C524.552 64.1947 525.299 57.944 526.408 51.416C527.517 44.8453 528.925 38.5093 530.632 32.408C530.931 31.3413 531.528 30.5947 532.424 30.168C533.32 29.7413 534.493 29.528 535.944 29.528C538.547 29.528 539.848 30.2533 539.848 31.704C539.848 32.3013 539.72 32.984 539.464 33.752C538.355 37.08 537.245 41.6027 536.136 47.32C535.027 52.9947 534.237 58.4133 533.768 63.576C535.816 63.7467 537.48 63.832 538.76 63.832C544.733 63.832 549.107 62.9787 551.88 61.272C554.696 59.5227 556.104 57.304 556.104 54.616C556.104 52.7387 555.293 51.16 553.672 49.88C552.093 48.6 549.427 47.896 545.672 47.768C544.819 47.7253 544.221 47.512 543.88 47.128C543.539 46.744 543.368 46.1253 543.368 45.272C543.368 44.0347 543.624 43.032 544.136 42.264C544.648 41.496 545.587 41.0907 546.952 41.048C549.981 40.9627 552.712 40.5147 555.144 39.704C557.619 38.8933 559.56 37.7627 560.968 36.312C562.376 34.8187 563.08 33.0907 563.08 31.128C563.08 28.6533 561.864 26.712 559.432 25.304C557 23.8533 553.267 23.128 548.232 23.128C543.667 23.128 539.251 23.7253 534.984 24.92C530.717 26.072 527.091 27.544 524.104 29.336C522.739 30.1467 521.587 30.552 520.648 30.552C519.88 30.552 519.283 30.296 518.856 29.784C518.472 29.2293 518.28 28.5467 518.28 27.736C518.28 26.6693 518.493 25.752 518.92 24.984C519.389 24.216 520.477 23.3413 522.184 22.36C525.768 20.312 529.971 18.712 534.792 17.56C539.613 16.408 544.541 15.832 549.576 15.832C557.299 15.832 563.059 17.1333 566.856 19.736C570.653 22.3387 572.552 25.7733 572.552 30.04ZM599.304 56.728C599.858 56.728 600.285 56.984 600.583 57.496C600.925 58.008 601.096 58.712 601.096 59.608C601.096 61.3147 600.69 62.6373 599.88 63.576C598.301 65.496 596.061 67.2667 593.16 68.888C590.301 70.5093 587.229 71.32 583.944 71.32C579.464 71.32 575.986 70.104 573.512 67.672C571.037 65.24 569.799 61.912 569.799 57.688C569.799 54.744 570.418 52.0133 571.656 49.496C572.893 46.936 574.6 44.9093 576.776 43.416C578.994 41.9227 581.49 41.176 584.264 41.176C586.738 41.176 588.722 41.9227 590.216 43.416C591.709 44.8667 592.456 46.8507 592.456 49.368C592.456 52.312 591.389 54.8507 589.256 56.984C587.165 59.0747 583.602 60.7387 578.568 61.976C579.634 63.9387 581.661 64.92 584.648 64.92C586.568 64.92 588.744 64.2587 591.176 62.936C593.65 61.5707 595.784 59.8 597.576 57.624C598.088 57.0267 598.664 56.728 599.304 56.728ZM583.176 47.448C581.597 47.448 580.253 48.3653 579.144 50.2C578.077 52.0347 577.544 54.2533 577.544 56.856V56.984C580.061 56.3867 582.045 55.4907 583.496 54.296C584.946 53.1013 585.672 51.7147 585.672 50.136C585.672 49.3253 585.437 48.6853 584.968 48.216C584.541 47.704 583.944 47.448 583.176 47.448ZM603.444 71.32C600.799 71.32 598.687 70.36 597.108 68.44C595.529 66.52 594.74 64.0027 594.74 60.888C594.74 57.4747 595.529 54.2533 597.108 51.224C598.687 48.152 600.777 45.6987 603.38 43.864C606.025 41.9867 608.82 41.048 611.764 41.048C612.703 41.048 613.321 41.24 613.62 41.624C613.961 41.9653 614.239 42.6053 614.452 43.544C615.348 43.3733 616.287 43.288 617.268 43.288C619.359 43.288 620.404 44.0347 620.404 45.528C620.404 46.424 620.084 48.5573 619.444 51.928C618.463 56.8347 617.972 60.248 617.972 62.168C617.972 62.808 618.121 63.32 618.42 63.704C618.761 64.088 619.188 64.28 619.7 64.28C620.511 64.28 621.492 63.768 622.644 62.744C623.796 61.6773 625.353 59.9707 627.316 57.624C627.828 57.0267 628.404 56.728 629.044 56.728C629.599 56.728 630.025 56.984 630.324 57.496C630.665 58.008 630.836 58.712 630.836 59.608C630.836 61.3147 630.431 62.6373 629.62 63.576C627.871 65.752 626.015 67.5867 624.052 69.08C622.089 70.5733 620.191 71.32 618.356 71.32C616.948 71.32 615.647 70.8507 614.452 69.912C613.3 68.9307 612.425 67.608 611.828 65.944C609.609 69.528 606.815 71.32 603.444 71.32ZM605.748 64.856C606.687 64.856 607.583 64.3013 608.436 63.192C609.289 62.0827 609.908 60.6107 610.292 58.776L612.66 47C610.868 47.0427 609.204 47.7253 607.668 49.048C606.175 50.328 604.98 52.0347 604.084 54.168C603.188 56.3013 602.74 58.5627 602.74 60.952C602.74 62.2747 602.996 63.256 603.508 63.896C604.063 64.536 604.809 64.856 605.748 64.856ZM632.163 71.32C630.243 71.32 628.664 70.4453 627.427 68.696C626.232 66.904 625.635 64.6853 625.635 62.04C625.635 58.84 625.848 55.9173 626.275 53.272C626.701 50.584 627.405 47.7467 628.387 44.76C628.813 43.48 629.411 42.5627 630.179 42.008C630.947 41.4533 632.163 41.176 633.827 41.176C634.765 41.176 635.405 41.3253 635.747 41.624C636.131 41.9227 636.323 42.3707 636.323 42.968C636.323 43.3093 636.088 44.4613 635.619 46.424C635.192 48.0027 634.851 49.432 634.595 50.712C633.741 55.192 633.315 58.1787 633.315 59.672C633.315 60.568 633.421 61.208 633.635 61.592C633.848 61.9333 634.189 62.104 634.659 62.104C635.299 62.104 636.088 61.464 637.027 60.184C638.008 58.904 639.032 56.9627 640.099 54.36C641.208 51.7573 642.275 48.5573 643.299 44.76C643.64 43.48 644.152 42.5627 644.835 42.008C645.56 41.4533 646.627 41.176 648.035 41.176C649.016 41.176 649.699 41.304 650.083 41.56C650.467 41.7733 650.659 42.2 650.659 42.84C650.659 43.9067 650.125 46.8293 649.059 51.608C647.864 57.0693 647.267 60.44 647.267 61.72C647.267 62.5307 647.437 63.1707 647.779 63.64C648.12 64.0667 648.568 64.28 649.123 64.28C649.976 64.28 650.979 63.768 652.131 62.744C653.325 61.6773 654.904 59.9707 656.867 57.624C657.379 57.0267 657.955 56.728 658.595 56.728C659.149 56.728 659.576 56.984 659.875 57.496C660.216 58.008 660.387 58.712 660.387 59.608C660.387 61.3147 659.981 62.6373 659.171 63.576C657.336 65.8373 655.352 67.6933 653.219 69.144C651.128 70.5947 648.739 71.32 646.051 71.32C644.003 71.32 642.488 70.5307 641.507 68.952C640.568 67.3733 640.099 65.1547 640.099 62.296C639.373 65.1973 638.285 67.4373 636.835 69.016C635.384 70.552 633.827 71.32 632.163 71.32ZM683.741 56.728C684.296 56.728 684.722 56.984 685.021 57.496C685.362 58.008 685.533 58.712 685.533 59.608C685.533 61.3147 685.128 62.6373 684.317 63.576C682.482 65.8373 680.477 67.6933 678.301 69.144C676.125 70.5947 673.629 71.32 670.813 71.32C662.109 71.32 657.757 65.1973 657.757 52.952C657.757 51.0747 657.821 49.176 657.949 47.256H655.453C654.173 47.256 653.298 47.0213 652.829 46.552C652.402 46.0827 652.189 45.336 652.189 44.312C652.189 41.9227 653.149 40.728 655.069 40.728H658.717C659.442 36.0347 660.552 31.7467 662.045 27.864C663.538 23.9813 665.33 20.888 667.421 18.584C669.554 16.28 671.837 15.128 674.269 15.128C676.061 15.128 677.469 15.9173 678.493 17.496C679.517 19.0747 680.029 21.0587 680.029 23.448C680.029 30.0613 677.256 35.8213 671.709 40.728H678.877C679.56 40.728 680.05 40.8773 680.349 41.176C680.648 41.4747 680.797 42.0293 680.797 42.84C680.797 45.784 678.386 47.256 673.565 47.256H665.757C665.672 49.3893 665.629 51.0533 665.629 52.248C665.629 56.6853 666.141 59.8 667.165 61.592C668.232 63.384 669.896 64.28 672.157 64.28C673.992 64.28 675.613 63.7253 677.021 62.616C678.429 61.5067 680.093 59.8427 682.013 57.624C682.525 57.0267 683.101 56.728 683.741 56.728ZM672.541 21.272C671.901 21.272 671.176 22.0827 670.365 23.704C669.597 25.2827 668.85 27.5013 668.125 30.36C667.442 33.176 666.866 36.312 666.397 39.768C668.914 37.592 670.792 35.16 672.029 32.472C673.309 29.7413 673.949 27.2667 673.949 25.048C673.949 22.5307 673.48 21.272 672.541 21.272ZM713.09 56.856C713.645 56.856 714.071 57.1333 714.37 57.688C714.711 58.2 714.882 58.8613 714.882 59.672C714.882 60.6533 714.733 61.4213 714.434 61.976C714.135 62.5307 713.666 63.0213 713.026 63.448L700.738 71.704C699.117 80.536 696.983 87.4693 694.338 92.504C691.735 97.5813 688.407 100.12 684.354 100.12C682.178 100.12 680.407 99.4373 679.042 98.072C677.677 96.7493 676.994 95 676.994 92.824C676.994 90.8187 677.442 88.7707 678.338 86.68C679.277 84.5893 680.983 82.1787 683.458 79.448C685.975 76.76 689.517 73.6667 694.082 70.168L694.274 68.696C694.573 67.1173 694.914 64.856 695.298 61.912C694.445 64.984 693.25 67.3307 691.714 68.952C690.178 70.5307 688.557 71.32 686.85 71.32C684.93 71.32 683.351 70.4453 682.114 68.696C680.919 66.904 680.322 64.6853 680.322 62.04C680.322 58.84 680.535 55.9173 680.962 53.272C681.389 50.584 682.093 47.7467 683.074 44.76C683.501 43.48 684.098 42.5627 684.866 42.008C685.634 41.4533 686.85 41.176 688.514 41.176C689.453 41.176 690.093 41.3253 690.434 41.624C690.818 41.9227 691.01 42.3707 691.01 42.968C691.01 43.3093 690.775 44.4613 690.306 46.424C689.879 48.0027 689.538 49.432 689.282 50.712C688.941 52.4613 688.642 54.1467 688.386 55.768C688.13 57.3467 688.002 58.648 688.002 59.672C688.002 61.2933 688.45 62.104 689.346 62.104C689.986 62.104 690.775 61.464 691.714 60.184C692.695 58.904 693.719 56.9627 694.786 54.36C695.895 51.7573 696.962 48.5573 697.986 44.76C698.327 43.48 698.839 42.5627 699.522 42.008C700.247 41.4533 701.314 41.176 702.722 41.176C703.703 41.176 704.386 41.304 704.77 41.56C705.154 41.816 705.346 42.2427 705.346 42.84C705.346 43.9067 704.791 47.576 703.682 53.848L702.018 64.152C705.303 61.6773 708.503 59.416 711.618 57.368C712.173 57.0267 712.663 56.856 713.09 56.856ZM685.058 93.912C686.125 93.912 687.319 92.6747 688.642 90.2C689.965 87.7253 691.287 83.608 692.61 77.848C689.325 80.6213 686.935 83.1387 685.442 85.4C683.991 87.704 683.266 89.7093 683.266 91.416C683.266 92.1413 683.394 92.7387 683.65 93.208C683.949 93.6773 684.418 93.912 685.058 93.912ZM738.866 56.728C739.421 56.728 739.847 56.984 740.146 57.496C740.487 58.008 740.658 58.712 740.658 59.608C740.658 61.3147 740.253 62.6373 739.442 63.576C737.607 65.8373 735.602 67.6933 733.426 69.144C731.25 70.5947 728.754 71.32 725.938 71.32C717.234 71.32 712.882 65.1973 712.882 52.952C712.882 51.0747 712.946 49.176 713.074 47.256H710.578C709.298 47.256 708.423 47.0213 707.954 46.552C707.527 46.0827 707.314 45.336 707.314 44.312C707.314 41.9227 708.274 40.728 710.194 40.728H713.842C714.567 36.0347 715.677 31.7467 717.17 27.864C718.663 23.9813 720.455 20.888 722.546 18.584C724.679 16.28 726.962 15.128 729.394 15.128C731.186 15.128 732.594 15.9173 733.618 17.496C734.642 19.0747 735.154 21.0587 735.154 23.448C735.154 30.0613 732.381 35.8213 726.834 40.728H734.002C734.685 40.728 735.175 40.8773 735.474 41.176C735.773 41.4747 735.922 42.0293 735.922 42.84C735.922 45.784 733.511 47.256 728.69 47.256H720.882C720.797 49.3893 720.754 51.0533 720.754 52.248C720.754 56.6853 721.266 59.8 722.29 61.592C723.357 63.384 725.021 64.28 727.282 64.28C729.117 64.28 730.738 63.7253 732.146 62.616C733.554 61.5067 735.218 59.8427 737.138 57.624C737.65 57.0267 738.226 56.728 738.866 56.728ZM727.666 21.272C727.026 21.272 726.301 22.0827 725.49 23.704C724.722 25.2827 723.975 27.5013 723.25 30.36C722.567 33.176 721.991 36.312 721.522 39.768C724.039 37.592 725.917 35.16 727.154 32.472C728.434 29.7413 729.074 27.2667 729.074 25.048C729.074 22.5307 728.605 21.272 727.666 21.272ZM768.087 51.352C768.642 51.352 769.068 51.6293 769.367 52.184C769.666 52.7387 769.815 53.4427 769.815 54.296C769.815 56.344 769.196 57.56 767.959 57.944C765.399 58.84 762.583 59.352 759.511 59.48C758.7 63.064 757.1 65.944 754.711 68.12C752.322 70.2533 749.612 71.32 746.583 71.32C744.023 71.32 741.826 70.7013 739.991 69.464C738.199 68.2267 736.834 66.584 735.895 64.536C734.956 62.488 734.487 60.2693 734.487 57.88C734.487 54.6373 735.106 51.7573 736.343 49.24C737.58 46.68 739.287 44.696 741.463 43.288C743.639 41.8373 746.05 41.112 748.695 41.112C751.938 41.112 754.54 42.2427 756.503 44.504C758.508 46.7227 759.682 49.4747 760.023 52.76C762.028 52.632 764.418 52.2053 767.191 51.48C767.532 51.3947 767.831 51.352 768.087 51.352ZM747.095 64.536C748.46 64.536 749.634 63.9813 750.615 62.872C751.639 61.7627 752.322 60.1627 752.663 58.072C751.34 57.176 750.316 56.0027 749.591 54.552C748.908 53.1013 748.567 51.5653 748.567 49.944C748.567 49.2613 748.631 48.5787 748.759 47.896H748.439C746.732 47.896 745.303 48.728 744.151 50.392C743.042 52.0133 742.487 54.3173 742.487 57.304C742.487 59.6507 742.935 61.4427 743.831 62.68C744.77 63.9173 745.858 64.536 747.095 64.536ZM770.85 71.32C768.93 71.32 767.351 70.4453 766.114 68.696C764.919 66.904 764.322 64.6853 764.322 62.04C764.322 58.84 764.535 55.9173 764.962 53.272C765.389 50.584 766.093 47.7467 767.074 44.76C767.501 43.48 768.098 42.5627 768.866 42.008C769.634 41.4533 770.85 41.176 772.514 41.176C773.453 41.176 774.093 41.3253 774.434 41.624C774.818 41.9227 775.01 42.3707 775.01 42.968C775.01 43.3093 774.775 44.4613 774.306 46.424C773.879 48.0027 773.538 49.432 773.282 50.712C772.429 55.192 772.002 58.1787 772.002 59.672C772.002 60.568 772.109 61.208 772.322 61.592C772.535 61.9333 772.877 62.104 773.346 62.104C773.986 62.104 774.775 61.464 775.714 60.184C776.695 58.904 777.719 56.9627 778.786 54.36C779.895 51.7573 780.962 48.5573 781.986 44.76C782.327 43.48 782.839 42.5627 783.522 42.008C784.247 41.4533 785.314 41.176 786.722 41.176C787.703 41.176 788.386 41.304 788.77 41.56C789.154 41.7733 789.346 42.2 789.346 42.84C789.346 43.9067 788.813 46.8293 787.746 51.608C786.551 57.0693 785.954 60.44 785.954 61.72C785.954 62.5307 786.125 63.1707 786.466 63.64C786.807 64.0667 787.255 64.28 787.81 64.28C788.663 64.28 789.666 63.768 790.818 62.744C792.013 61.6773 793.591 59.9707 795.554 57.624C796.066 57.0267 796.642 56.728 797.282 56.728C797.837 56.728 798.263 56.984 798.562 57.496C798.903 58.008 799.074 58.712 799.074 59.608C799.074 61.3147 798.669 62.6373 797.858 63.576C796.023 65.8373 794.039 67.6933 791.906 69.144C789.815 70.5947 787.426 71.32 784.738 71.32C782.69 71.32 781.175 70.5307 780.194 68.952C779.255 67.3733 778.786 65.1547 778.786 62.296C778.061 65.1973 776.973 67.4373 775.522 69.016C774.071 70.552 772.514 71.32 770.85 71.32ZM798.429 71.32C796.807 71.32 795.655 70.4667 794.973 68.76C794.333 67.0533 794.013 64.3227 794.013 60.568C794.013 55.0213 794.802 49.752 796.381 44.76C796.765 43.5227 797.383 42.6267 798.237 42.072C799.133 41.4747 800.37 41.176 801.949 41.176C802.802 41.176 803.399 41.2827 803.741 41.496C804.082 41.7093 804.253 42.1147 804.253 42.712C804.253 43.3947 803.933 44.9307 803.293 47.32C802.866 49.0267 802.525 50.52 802.269 51.8C802.013 53.08 801.799 54.6587 801.629 56.536C803.037 52.8667 804.615 49.88 806.365 47.576C808.114 45.272 809.821 43.6293 811.485 42.648C813.191 41.6667 814.749 41.176 816.157 41.176C818.93 41.176 820.317 42.5627 820.317 45.336C820.317 45.8907 820.125 47.2347 819.741 49.368C819.399 51.0747 819.229 52.1413 819.229 52.568C819.229 54.0613 819.762 54.808 820.829 54.808C822.023 54.808 823.559 53.8693 825.437 51.992C825.991 51.4373 826.567 51.16 827.165 51.16C827.719 51.16 828.146 51.416 828.444 51.928C828.786 52.3973 828.957 53.0373 828.957 53.848C828.957 55.4267 828.53 56.664 827.677 57.56C826.482 58.7973 825.074 59.864 823.453 60.76C821.874 61.6133 820.189 62.04 818.397 62.04C816.135 62.04 814.407 61.464 813.213 60.312C812.061 59.16 811.485 57.6027 811.485 55.64C811.485 55 811.549 54.36 811.677 53.72C811.762 52.8667 811.805 52.2907 811.805 51.992C811.805 51.3093 811.57 50.968 811.101 50.968C810.461 50.968 809.607 51.6933 808.541 53.144C807.517 54.552 806.493 56.4293 805.469 58.776C804.445 61.1227 803.613 63.5973 802.973 66.2C802.503 68.2053 801.949 69.5707 801.309 70.296C800.711 70.9787 799.751 71.32 798.429 71.32ZM831.394 36.952C829.602 36.952 828.258 36.5467 827.362 35.736C826.466 34.8827 826.018 33.7093 826.018 32.216C826.018 30.7227 826.594 29.4853 827.746 28.504C828.94 27.48 830.412 26.968 832.162 26.968C833.74 26.968 835.02 27.352 836.002 28.12C836.983 28.888 837.474 29.976 837.474 31.384C837.474 33.0907 836.919 34.456 835.81 35.48C834.7 36.4613 833.228 36.952 831.394 36.952ZM830.882 71.32C828.108 71.32 826.082 70.3387 824.802 68.376C823.564 66.4133 822.946 63.8107 822.946 60.568C822.946 58.648 823.18 56.1947 823.65 53.208C824.162 50.1787 824.802 47.3627 825.57 44.76C825.954 43.3947 826.466 42.456 827.106 41.944C827.746 41.432 828.77 41.176 830.178 41.176C832.354 41.176 833.442 41.9013 833.442 43.352C833.442 44.4187 833.036 46.8933 832.226 50.776C831.202 55.4693 830.69 58.648 830.69 60.312C830.69 61.592 830.86 62.5733 831.202 63.256C831.543 63.9387 832.119 64.28 832.93 64.28C833.698 64.28 834.658 63.7467 835.81 62.68C836.962 61.6133 838.498 59.928 840.418 57.624C840.93 57.0267 841.506 56.728 842.146 56.728C842.7 56.728 843.127 56.984 843.426 57.496C843.767 58.008 843.938 58.712 843.938 59.608C843.938 61.3147 843.532 62.6373 842.722 63.576C838.498 68.7387 834.551 71.32 830.882 71.32ZM850.664 72.728C848.445 72.728 846.738 72.216 845.544 71.192C844.392 70.168 843.816 69.016 843.816 67.736C843.816 66.6267 844.221 65.6667 845.032 64.856C845.842 64.0453 847.037 63.64 848.616 63.64C849.17 63.64 849.81 63.704 850.536 63.832C851.304 63.9173 851.88 63.9813 852.264 64.024C852.221 62.9147 851.965 61.8693 851.496 60.888C851.069 59.9067 850.514 58.968 849.832 58.072C849.149 57.1333 848.509 56.3227 847.912 55.64C846.589 58.1573 845.266 60.248 843.944 61.912C842.664 63.576 841.256 65.1547 839.72 66.648C838.952 67.416 838.141 67.8 837.288 67.8C836.605 67.8 836.05 67.5653 835.623 67.096C835.197 66.584 834.983 65.9653 834.983 65.24C834.983 64.3867 835.282 63.5973 835.88 62.872L836.712 61.848C839.058 58.9467 840.829 56.5573 842.024 54.68C842.749 53.4427 843.602 51.8 844.584 49.752C845.565 47.6613 846.525 45.5067 847.464 43.288C848.274 41.4107 849.96 40.472 852.52 40.472C853.714 40.472 854.546 40.5787 855.016 40.792C855.485 41.0053 855.72 41.3467 855.72 41.816C855.72 42.072 855.634 42.4773 855.464 43.032C855.293 43.5867 855.058 44.1413 854.76 44.696C853.992 46.232 853.608 47.5333 853.608 48.6C853.608 49.24 853.821 49.944 854.248 50.712C854.717 51.48 855.421 52.44 856.36 53.592C857.725 55.384 858.749 56.92 859.432 58.2C860.157 59.4373 860.52 60.8027 860.52 62.296C860.52 62.7227 860.477 63.32 860.392 64.088C862.482 63.2773 864.936 61.1227 867.752 57.624C868.264 57.0267 868.84 56.728 869.479 56.728C870.034 56.728 870.461 56.984 870.76 57.496C871.101 58.008 871.272 58.712 871.272 59.608C871.272 61.2293 870.866 62.552 870.056 63.576C867.922 66.2213 865.874 68.0347 863.912 69.016C861.992 69.9547 859.602 70.4667 856.744 70.552C855.037 72.0027 853.01 72.728 850.664 72.728ZM870.616 71.32C868.995 71.32 867.843 70.4667 867.16 68.76C866.52 67.0533 866.2 64.3227 866.2 60.568C866.2 55.0213 866.989 49.752 868.568 44.76C868.952 43.5227 869.571 42.6267 870.424 42.072C871.32 41.4747 872.557 41.176 874.136 41.176C874.989 41.176 875.587 41.2827 875.928 41.496C876.269 41.7093 876.44 42.1147 876.44 42.712C876.44 43.3947 876.12 44.9307 875.48 47.32C875.053 49.0267 874.712 50.52 874.456 51.8C874.2 53.0373 873.987 54.5947 873.816 56.472C874.968 53.144 876.333 50.328 877.912 48.024C879.533 45.72 881.176 44.0133 882.84 42.904C884.547 41.752 886.147 41.176 887.64 41.176C889.133 41.176 890.179 41.5173 890.776 42.2C891.416 42.8827 891.736 43.928 891.736 45.336C891.736 46.7013 891.331 49.176 890.52 52.76C890.179 54.296 889.944 55.448 889.816 56.216C891.224 52.632 892.781 49.7093 894.488 47.448C896.237 45.1867 897.944 43.5867 899.608 42.648C901.272 41.6667 902.808 41.176 904.216 41.176C905.581 41.176 906.605 41.5387 907.288 42.264C908.013 42.9467 908.376 43.9707 908.376 45.336C908.376 46.4453 908.141 48.536 907.672 51.608C907.245 54.2107 906.904 56.6853 906.648 59.032C906.392 61.336 906.264 63.9173 906.264 66.776C906.264 68.3973 905.923 69.5707 905.24 70.296C904.6 70.9787 903.533 71.32 902.04 71.32C900.632 71.32 899.608 70.9573 898.968 70.232C898.328 69.5067 898.008 68.4187 898.008 66.968C898.008 65.2613 898.307 62.4453 898.904 58.52C899.416 55.1067 899.672 52.9307 899.672 51.992C899.672 51.3093 899.437 50.968 898.968 50.968C898.413 50.968 897.624 51.6933 896.6 53.144C895.576 54.552 894.552 56.4293 893.528 58.776C892.504 61.1227 891.672 63.5973 891.032 66.2C890.563 68.248 890.008 69.6133 889.368 70.296C888.771 70.9787 887.789 71.32 886.424 71.32C885.016 71.32 883.949 70.6587 883.224 69.336C882.541 67.9707 882.2 66.328 882.2 64.408C882.2 62.7867 882.413 60.44 882.84 57.368C883.181 54.6373 883.352 52.8453 883.352 51.992C883.352 51.3093 883.117 50.968 882.648 50.968C882.008 50.968 881.197 51.736 880.216 53.272C879.235 54.808 878.275 56.7707 877.336 59.16C876.44 61.5493 875.715 63.896 875.16 66.2C874.691 68.2053 874.136 69.5707 873.496 70.296C872.899 70.9787 871.939 71.32 870.616 71.32Z" fill="black"/>
</svg>
