<svg width="68" height="68" viewBox="0 0 68 68" fill="none" xmlns="http://www.w3.org/2000/svg">
<g filter="url(#filter0_d_62_195)">
<rect x="4" width="60" height="60" rx="30" fill="white"/>
<rect x="6" y="2" width="56" height="56" rx="28" stroke="black" stroke-width="4"/>
</g>
<path d="M27 37.923C27 42.775 31.244 46.787 33.123 48.325C33.393 48.545 33.528 48.657 33.729 48.713C33.885 48.757 34.115 48.757 34.271 48.713C34.472 48.657 34.607 48.546 34.877 48.325C36.756 46.787 41 42.775 41 37.923C40.9991 37.012 40.8175 36.1103 40.4656 35.2701C40.1137 34.4298 39.5985 33.6677 38.95 33.028C37.6311 31.727 35.8526 30.9984 34 31C32.1474 30.9984 30.3689 31.727 29.05 33.028C28.4014 33.6677 27.8862 34.4298 27.5343 35.27C27.1824 36.1103 27.0008 37.012 27 37.923Z" stroke="black" stroke-width="2" stroke-linecap="round" stroke-linejoin="round"/>
<path d="M32 37C32 37.5304 32.2107 38.0391 32.5858 38.4142C32.9609 38.7893 33.4696 39 34 39C34.5304 39 35.0391 38.7893 35.4142 38.4142C35.7893 38.0391 36 37.5304 36 37C36 36.4696 35.7893 35.9609 35.4142 35.5858C35.0391 35.2107 34.5304 35 34 35C33.4696 35 32.9609 35.2107 32.5858 35.5858C32.2107 35.9609 32 36.4696 32 37Z" stroke="black" stroke-width="2" stroke-linecap="round" stroke-linejoin="round"/>
<g clip-path="url(#clip0_62_195)">
<path d="M34.075 21.475C33.5917 21.4917 33.1293 21.4127 32.688 21.238C32.2467 21.0633 31.859 20.809 31.525 20.475C31.1917 20.1417 30.9373 19.7667 30.762 19.35C30.5867 18.9333 30.4993 18.4917 30.5 18.025C30.5 17.8583 30.5083 17.6957 30.525 17.537C30.5417 17.3783 30.575 17.2243 30.625 17.075C30.6917 16.875 30.6873 16.675 30.612 16.475C30.5367 16.275 30.4077 16.1333 30.225 16.05C30.025 15.9667 29.829 15.9667 29.637 16.05C29.445 16.1333 29.316 16.275 29.25 16.475C29.1667 16.725 29.104 16.975 29.062 17.225C29.02 17.475 28.9993 17.7333 29 18C29 18.6667 29.1293 19.3043 29.388 19.913C29.6467 20.5217 30.009 21.059 30.475 21.525C30.925 21.9917 31.4543 22.35 32.063 22.6C32.6717 22.85 33.3007 22.9833 33.95 23L33.525 23.425C33.375 23.575 33.3 23.75 33.3 23.95C33.3 24.15 33.375 24.325 33.525 24.475C33.675 24.625 33.85 24.7 34.05 24.7C34.25 24.7 34.425 24.625 34.575 24.475L36.175 22.875C36.375 22.675 36.475 22.4417 36.475 22.175C36.475 21.9083 36.375 21.675 36.175 21.475L34.575 19.875C34.425 19.725 34.25 19.65 34.05 19.65C33.85 19.65 33.675 19.725 33.525 19.875C33.375 20.025 33.3 20.2 33.3 20.4C33.3 20.6 33.375 20.775 33.525 20.925L34.075 21.475ZM33.9 14.5C34.3833 14.5 34.85 14.5877 35.3 14.763C35.75 14.9383 36.1417 15.1923 36.475 15.525C36.8083 15.8583 37.0627 16.2333 37.238 16.65C37.4133 17.0667 37.5007 17.5083 37.5 17.975C37.5 18.1417 37.4917 18.304 37.475 18.462C37.4583 18.62 37.425 18.7743 37.375 18.925C37.3083 19.125 37.3127 19.329 37.388 19.537C37.4633 19.745 37.5923 19.891 37.775 19.975C37.975 20.0583 38.171 20.0583 38.363 19.975C38.555 19.8917 38.684 19.75 38.75 19.55C38.8333 19.3 38.896 19.0457 38.938 18.787C38.98 18.5283 39.0007 18.266 39 18C39 17.3333 38.879 16.6957 38.637 16.087C38.395 15.4783 38.0327 14.9327 37.55 14.45C37.0833 13.9833 36.5457 13.6293 35.937 13.388C35.3283 13.1467 34.6993 13.0257 34.05 13.025L34.5 12.575C34.6333 12.425 34.7 12.25 34.7 12.05C34.7 11.85 34.625 11.675 34.475 11.525C34.325 11.375 34.15 11.3 33.95 11.3C33.75 11.3 33.575 11.375 33.425 11.525L31.825 13.125C31.625 13.325 31.525 13.5583 31.525 13.825C31.525 14.0917 31.625 14.325 31.825 14.525L33.425 16.125C33.575 16.275 33.75 16.35 33.95 16.35C34.15 16.35 34.325 16.275 34.475 16.125C34.625 15.975 34.7 15.8 34.7 15.6C34.7 15.4 34.625 15.225 34.475 15.075L33.9 14.5ZM34 28C32.6167 28 31.3167 27.7373 30.1 27.212C28.8833 26.6867 27.825 25.9743 26.925 25.075C26.025 24.175 25.3127 23.1167 24.788 21.9C24.2633 20.6833 24.0007 19.3833 24 18C24 16.6167 24.2627 15.3167 24.788 14.1C25.3133 12.8833 26.0257 11.825 26.925 10.925C27.825 10.025 28.8833 9.31267 30.1 8.788C31.3167 8.26333 32.6167 8.00067 34 8C35.3833 8 36.6833 8.26267 37.9 8.788C39.1167 9.31333 40.175 10.0257 41.075 10.925C41.975 11.825 42.6877 12.8833 43.213 14.1C43.7383 15.3167 44.0007 16.6167 44 18C44 19.3833 43.7373 20.6833 43.212 21.9C42.6867 23.1167 41.9743 24.175 41.075 25.075C40.175 25.975 39.1167 26.6877 37.9 27.213C36.6833 27.7383 35.3833 28.0007 34 28ZM34 26C36.2333 26 38.125 25.225 39.675 23.675C41.225 22.125 42 20.2333 42 18C42 15.7667 41.225 13.875 39.675 12.325C38.125 10.775 36.2333 10 34 10C31.7667 10 29.875 10.775 28.325 12.325C26.775 13.875 26 15.7667 26 18C26 20.2333 26.775 22.125 28.325 23.675C29.875 25.225 31.7667 26 34 26Z" fill="black"/>
</g>
<defs>
<filter id="filter0_d_62_195" x="0" y="0" width="68" height="68" filterUnits="userSpaceOnUse" color-interpolation-filters="sRGB">
<feFlood flood-opacity="0" result="BackgroundImageFix"/>
<feColorMatrix in="SourceAlpha" type="matrix" values="0 0 0 0 0 0 0 0 0 0 0 0 0 0 0 0 0 0 127 0" result="hardAlpha"/>
<feOffset dy="4"/>
<feGaussianBlur stdDeviation="2"/>
<feComposite in2="hardAlpha" operator="out"/>
<feColorMatrix type="matrix" values="0 0 0 0 0 0 0 0 0 0 0 0 0 0 0 0 0 0 0.25 0"/>
<feBlend mode="normal" in2="BackgroundImageFix" result="effect1_dropShadow_62_195"/>
<feBlend mode="normal" in="SourceGraphic" in2="effect1_dropShadow_62_195" result="shape"/>
</filter>
<clipPath id="clip0_62_195">
<rect width="24" height="24" fill="white" transform="translate(22 6)"/>
</clipPath>
</defs>
</svg>
