<svg width="100" height="100" viewBox="0 0 100 100" fill="none" xmlns="http://www.w3.org/2000/svg">
<path d="M50 8.33325C55.4717 8.33325 60.8899 9.41099 65.9451 11.5049C71.0004 13.5989 75.5937 16.668 79.4628 20.5371C83.3319 24.4062 86.401 28.9995 88.495 34.0548C90.5889 39.11 91.6667 44.5282 91.6667 49.9999C91.6667 61.0506 87.2768 71.6487 79.4628 79.4627C71.6488 87.2767 61.0507 91.6666 50 91.6666C44.5282 91.6666 39.1101 90.5889 34.0548 88.4949C28.9996 86.401 24.4063 83.3318 20.5372 79.4627C12.7232 71.6487 8.33331 61.0506 8.33331 49.9999C8.33331 38.9492 12.7232 28.3512 20.5372 20.5371C28.3512 12.7231 38.9493 8.33325 50 8.33325ZM50 16.6666C41.1594 16.6666 32.681 20.1785 26.4298 26.4297C20.1785 32.6809 16.6666 41.1594 16.6666 49.9999C16.6666 58.8405 20.1785 67.3189 26.4298 73.5702C32.681 79.8214 41.1594 83.3333 50 83.3333C58.8405 83.3333 67.319 79.8214 73.5702 73.5702C79.8214 67.3189 83.3333 58.8405 83.3333 49.9999C83.3333 41.1594 79.8214 32.6809 73.5702 26.4297C67.319 20.1785 58.8405 16.6666 50 16.6666ZM66.6667 41.6666V70.8333C66.6667 71.9383 66.2277 72.9981 65.4463 73.7795C64.6649 74.5609 63.6051 74.9999 62.5 74.9999H37.5C36.3949 74.9999 35.3351 74.5609 34.5537 73.7795C33.7723 72.9981 33.3333 71.9383 33.3333 70.8333V41.6666H66.6667ZM56.25 24.9999L60.4167 29.1666H70.8333V37.4999H29.1666V29.1666H39.5833L43.75 24.9999H56.25Z" fill="black"/>
</svg>
